<mxfile host="app.diagrams.net" modified="2024-06-18T23:40:08.161Z" agent="Mozilla/5.0 (Windows NT 10.0; Win64; x64) AppleWebKit/537.36 (KHTML, like Gecko) Chrome/125.0.0.0 Safari/537.36" etag="_496s39RLnj3UZLhaVy8" version="24.5.5" type="device">
  <diagram name="PÃ¡gina-1" id="nZpV4EJiWqk605kOInXX">
    <mxGraphModel dx="1434" dy="780" grid="1" gridSize="10" guides="1" tooltips="1" connect="1" arrows="1" fold="1" page="1" pageScale="1" pageWidth="827" pageHeight="1169" math="0" shadow="0">
      <root>
        <mxCell id="0" />
        <mxCell id="1" parent="0" />
        <mxCell id="yv6mtes-U7hIXpLy-x84-1" value="Usuario" style="shape=umlActor;verticalLabelPosition=bottom;verticalAlign=top;html=1;" parent="1" vertex="1">
          <mxGeometry x="50" y="280" width="30" height="65" as="geometry" />
        </mxCell>
        <mxCell id="yv6mtes-U7hIXpLy-x84-2" value="Academia de baile" style="shape=umlFrame;whiteSpace=wrap;html=1;pointerEvents=0;recursiveResize=0;container=1;collapsible=0;width=160;" parent="1" vertex="1">
          <mxGeometry x="120" y="40" width="550" height="750" as="geometry" />
        </mxCell>
        <mxCell id="1w9RCy8px_jSFDjX7dQ_-5" value="CU002- Gestionar&lt;div&gt;Clases&lt;/div&gt;" style="ellipse;whiteSpace=wrap;html=1;" vertex="1" parent="yv6mtes-U7hIXpLy-x84-2">
          <mxGeometry x="350" y="130" width="140" height="70" as="geometry" />
        </mxCell>
        <mxCell id="1w9RCy8px_jSFDjX7dQ_-11" value="CU004- Registrar la asitencia" style="ellipse;whiteSpace=wrap;html=1;" vertex="1" parent="yv6mtes-U7hIXpLy-x84-2">
          <mxGeometry x="50" y="630" width="140" height="70" as="geometry" />
        </mxCell>
        <mxCell id="1w9RCy8px_jSFDjX7dQ_-10" value="CU009- Registrar&amp;nbsp;&lt;div&gt;Evaluaciones&lt;/div&gt;" style="ellipse;whiteSpace=wrap;html=1;" vertex="1" parent="yv6mtes-U7hIXpLy-x84-2">
          <mxGeometry x="50" y="545" width="140" height="70" as="geometry" />
        </mxCell>
        <mxCell id="1w9RCy8px_jSFDjX7dQ_-9" value="CU008- Gestionar Eventos" style="ellipse;whiteSpace=wrap;html=1;" vertex="1" parent="yv6mtes-U7hIXpLy-x84-2">
          <mxGeometry x="350" y="510" width="140" height="70" as="geometry" />
        </mxCell>
        <mxCell id="1w9RCy8px_jSFDjX7dQ_-8" value="CU007Generar&amp;nbsp;&lt;div&gt;Informes&lt;/div&gt;" style="ellipse;whiteSpace=wrap;html=1;" vertex="1" parent="yv6mtes-U7hIXpLy-x84-2">
          <mxGeometry x="350" y="430" width="140" height="70" as="geometry" />
        </mxCell>
        <mxCell id="1w9RCy8px_jSFDjX7dQ_-7" value="CU006- Establecer Conexion" style="ellipse;whiteSpace=wrap;html=1;" vertex="1" parent="yv6mtes-U7hIXpLy-x84-2">
          <mxGeometry x="170" y="240" width="140" height="70" as="geometry" />
        </mxCell>
        <mxCell id="1w9RCy8px_jSFDjX7dQ_-6" value="CU005- Gestionar&amp;nbsp;&lt;div&gt;Usuarios&lt;/div&gt;" style="ellipse;whiteSpace=wrap;html=1;" vertex="1" parent="yv6mtes-U7hIXpLy-x84-2">
          <mxGeometry x="350" y="340" width="140" height="70" as="geometry" />
        </mxCell>
        <mxCell id="1w9RCy8px_jSFDjX7dQ_-12" value="CU001- Gestionar Alumnos" style="ellipse;whiteSpace=wrap;html=1;" vertex="1" parent="yv6mtes-U7hIXpLy-x84-2">
          <mxGeometry x="350" y="20" width="140" height="70" as="geometry" />
        </mxCell>
        <mxCell id="1w9RCy8px_jSFDjX7dQ_-1" value="Administrador" style="shape=umlActor;verticalLabelPosition=bottom;verticalAlign=top;html=1;" vertex="1" parent="1">
          <mxGeometry x="730" y="280" width="30" height="60" as="geometry" />
        </mxCell>
        <mxCell id="1w9RCy8px_jSFDjX7dQ_-2" value="Instructor" style="shape=umlActor;verticalLabelPosition=bottom;verticalAlign=top;html=1;" vertex="1" parent="1">
          <mxGeometry x="730" y="650" width="30" height="60" as="geometry" />
        </mxCell>
        <mxCell id="1w9RCy8px_jSFDjX7dQ_-18" value="" style="endArrow=open;endFill=1;endSize=12;html=1;rounded=0;entryX=1;entryY=0.5;entryDx=0;entryDy=0;exitX=0.5;exitY=0.5;exitDx=0;exitDy=0;exitPerimeter=0;" edge="1" parent="1" source="1w9RCy8px_jSFDjX7dQ_-2" target="1w9RCy8px_jSFDjX7dQ_-11">
          <mxGeometry width="160" relative="1" as="geometry">
            <mxPoint x="330" y="400" as="sourcePoint" />
            <mxPoint x="490" y="400" as="targetPoint" />
          </mxGeometry>
        </mxCell>
        <mxCell id="1w9RCy8px_jSFDjX7dQ_-19" value="" style="endArrow=open;endFill=1;endSize=12;html=1;rounded=0;entryX=1;entryY=0.5;entryDx=0;entryDy=0;exitX=0.5;exitY=0.5;exitDx=0;exitDy=0;exitPerimeter=0;" edge="1" parent="1" source="1w9RCy8px_jSFDjX7dQ_-2" target="1w9RCy8px_jSFDjX7dQ_-10">
          <mxGeometry width="160" relative="1" as="geometry">
            <mxPoint x="720" y="490" as="sourcePoint" />
            <mxPoint x="320" y="705" as="targetPoint" />
          </mxGeometry>
        </mxCell>
        <mxCell id="1w9RCy8px_jSFDjX7dQ_-21" value="" style="endArrow=open;endFill=1;endSize=12;html=1;rounded=0;entryX=1;entryY=0.5;entryDx=0;entryDy=0;exitX=0.5;exitY=0.5;exitDx=0;exitDy=0;exitPerimeter=0;" edge="1" parent="1" source="1w9RCy8px_jSFDjX7dQ_-1" target="1w9RCy8px_jSFDjX7dQ_-6">
          <mxGeometry width="160" relative="1" as="geometry">
            <mxPoint x="745" y="500" as="sourcePoint" />
            <mxPoint x="330" y="715" as="targetPoint" />
          </mxGeometry>
        </mxCell>
        <mxCell id="1w9RCy8px_jSFDjX7dQ_-22" value="" style="endArrow=open;endFill=1;endSize=12;html=1;rounded=0;entryX=1;entryY=0.5;entryDx=0;entryDy=0;exitX=0.5;exitY=0.5;exitDx=0;exitDy=0;exitPerimeter=0;" edge="1" parent="1" source="1w9RCy8px_jSFDjX7dQ_-1" target="1w9RCy8px_jSFDjX7dQ_-7">
          <mxGeometry width="160" relative="1" as="geometry">
            <mxPoint x="745" y="500" as="sourcePoint" />
            <mxPoint x="330" y="715" as="targetPoint" />
          </mxGeometry>
        </mxCell>
        <mxCell id="1w9RCy8px_jSFDjX7dQ_-23" value="" style="endArrow=open;endFill=1;endSize=12;html=1;rounded=0;entryX=1;entryY=0.5;entryDx=0;entryDy=0;exitX=0.5;exitY=0.5;exitDx=0;exitDy=0;exitPerimeter=0;" edge="1" parent="1" source="1w9RCy8px_jSFDjX7dQ_-1" target="1w9RCy8px_jSFDjX7dQ_-8">
          <mxGeometry width="160" relative="1" as="geometry">
            <mxPoint x="755" y="510" as="sourcePoint" />
            <mxPoint x="340" y="725" as="targetPoint" />
          </mxGeometry>
        </mxCell>
        <mxCell id="1w9RCy8px_jSFDjX7dQ_-24" value="" style="endArrow=open;endFill=1;endSize=12;html=1;rounded=0;entryX=1;entryY=0.5;entryDx=0;entryDy=0;exitX=0.5;exitY=0.5;exitDx=0;exitDy=0;exitPerimeter=0;" edge="1" parent="1" source="1w9RCy8px_jSFDjX7dQ_-1" target="1w9RCy8px_jSFDjX7dQ_-9">
          <mxGeometry width="160" relative="1" as="geometry">
            <mxPoint x="765" y="520" as="sourcePoint" />
            <mxPoint x="350" y="735" as="targetPoint" />
          </mxGeometry>
        </mxCell>
        <mxCell id="1w9RCy8px_jSFDjX7dQ_-25" value="" style="endArrow=open;endFill=1;endSize=12;html=1;rounded=0;entryX=1;entryY=0.5;entryDx=0;entryDy=0;exitX=0.5;exitY=0.5;exitDx=0;exitDy=0;exitPerimeter=0;" edge="1" parent="1" source="1w9RCy8px_jSFDjX7dQ_-1" target="1w9RCy8px_jSFDjX7dQ_-5">
          <mxGeometry width="160" relative="1" as="geometry">
            <mxPoint x="775" y="530" as="sourcePoint" />
            <mxPoint x="360" y="745" as="targetPoint" />
          </mxGeometry>
        </mxCell>
        <mxCell id="1w9RCy8px_jSFDjX7dQ_-26" value="" style="endArrow=open;endFill=1;endSize=12;html=1;rounded=0;entryX=1;entryY=0.5;entryDx=0;entryDy=0;exitX=0.433;exitY=0.617;exitDx=0;exitDy=0;exitPerimeter=0;" edge="1" parent="1" source="1w9RCy8px_jSFDjX7dQ_-1" target="1w9RCy8px_jSFDjX7dQ_-12">
          <mxGeometry width="160" relative="1" as="geometry">
            <mxPoint x="785" y="540" as="sourcePoint" />
            <mxPoint x="370" y="755" as="targetPoint" />
          </mxGeometry>
        </mxCell>
        <mxCell id="1w9RCy8px_jSFDjX7dQ_-27" value="" style="endArrow=open;endFill=1;endSize=12;html=1;rounded=0;entryX=0;entryY=0.5;entryDx=0;entryDy=0;exitX=0.5;exitY=0.5;exitDx=0;exitDy=0;exitPerimeter=0;" edge="1" parent="1" source="yv6mtes-U7hIXpLy-x84-1" target="1w9RCy8px_jSFDjX7dQ_-7">
          <mxGeometry width="160" relative="1" as="geometry">
            <mxPoint x="795" y="550" as="sourcePoint" />
            <mxPoint x="380" y="765" as="targetPoint" />
          </mxGeometry>
        </mxCell>
        <mxCell id="1w9RCy8px_jSFDjX7dQ_-28" value="" style="endArrow=open;endFill=1;endSize=12;html=1;rounded=0;entryX=-0.007;entryY=0.643;entryDx=0;entryDy=0;exitX=0.5;exitY=0.5;exitDx=0;exitDy=0;exitPerimeter=0;entryPerimeter=0;" edge="1" parent="1" source="yv6mtes-U7hIXpLy-x84-1" target="1w9RCy8px_jSFDjX7dQ_-5">
          <mxGeometry width="160" relative="1" as="geometry">
            <mxPoint x="805" y="560" as="sourcePoint" />
            <mxPoint x="390" y="775" as="targetPoint" />
          </mxGeometry>
        </mxCell>
      </root>
    </mxGraphModel>
  </diagram>
</mxfile>
